<svg xmlns="http://www.w3.org/2000/svg" width="200.756" height="52.85" viewBox="0 0 200.756 52.85">
  <g id="Group_4336" data-name="Group 4336" transform="translate(-480.27 -131.05)">
    <circle id="Ellipse_256" data-name="Ellipse 256" cx="2.507" cy="2.507" r="2.507" transform="translate(508.893 139.991)" fill="#00cc74"/>
    <circle id="Ellipse_257" data-name="Ellipse 257" cx="2.507" cy="2.507" r="2.507" transform="translate(498.918 139.991)" fill="#009652"/>
    <circle id="Ellipse_258" data-name="Ellipse 258" cx="2.507" cy="2.507" r="2.507" transform="translate(519.123 159.987)" fill="#009652"/>
    <circle id="Ellipse_259" data-name="Ellipse 259" cx="2.507" cy="2.507" r="2.507" transform="translate(519.123 149.888)" fill="#00cc74"/>
    <circle id="Ellipse_260" data-name="Ellipse 260" cx="2.507" cy="2.507" r="2.507" transform="translate(519.123 139.991)" fill="#12f98b"/>
    <circle id="Ellipse_261" data-name="Ellipse 261" cx="1.348" cy="1.348" r="1.348" transform="translate(510.052 151.047)" fill="#009652"/>
    <circle id="Ellipse_262" data-name="Ellipse 262" cx="1.348" cy="1.348" r="1.348" transform="translate(500.078 151.047)" fill="#016846"/>
    <circle id="Ellipse_263" data-name="Ellipse 263" cx="1.348" cy="1.348" r="1.348" transform="translate(510.052 161.146)" fill="#016846"/>
    <circle id="Ellipse_264" data-name="Ellipse 264" cx="1.348" cy="1.348" r="1.348" transform="translate(530.112 161.146)" fill="#00cc74"/>
    <circle id="Ellipse_265" data-name="Ellipse 265" cx="1.348" cy="1.348" r="1.348" transform="translate(530.112 151.047)" fill="#12f98b"/>
    <circle id="Ellipse_266" data-name="Ellipse 266" cx="1.348" cy="1.348" r="1.348" transform="translate(490.172 131.05)" fill="#009652"/>
    <circle id="Ellipse_267" data-name="Ellipse 267" cx="1.348" cy="1.348" r="1.348" transform="translate(480.27 131.05)" fill="#016846"/>
    <circle id="Ellipse_268" data-name="Ellipse 268" cx="1.348" cy="1.348" r="1.348" transform="translate(490.172 141.15)" fill="#016846"/>
    <circle id="Ellipse_269" data-name="Ellipse 269" cx="1.348" cy="1.348" r="1.348" transform="translate(530.112 131.05)" fill="#12f98b"/>
    <circle id="Ellipse_270" data-name="Ellipse 270" cx="1.348" cy="1.348" r="1.348" transform="translate(520.282 131.05)" fill="#12f98b"/>
    <circle id="Ellipse_271" data-name="Ellipse 271" cx="1.348" cy="1.348" r="1.348" transform="translate(530.112 141.15)" fill="#12f98b"/>
    <circle id="Ellipse_272" data-name="Ellipse 272" cx="1.348" cy="1.348" r="1.348" transform="translate(530.112 171.153)" fill="#009652"/>
    <circle id="Ellipse_273" data-name="Ellipse 273" cx="1.348" cy="1.348" r="1.348" transform="translate(520.282 171.153)" fill="#016846"/>
    <circle id="Ellipse_274" data-name="Ellipse 274" cx="1.348" cy="1.348" r="1.348" transform="translate(530.112 181.204)" fill="#016846"/>
    <circle id="Ellipse_275" data-name="Ellipse 275" cx="1.348" cy="1.348" r="1.348" transform="translate(510.052 131.05)" fill="#12f98b"/>
    <circle id="Ellipse_276" data-name="Ellipse 276" cx="1.348" cy="1.348" r="1.348" transform="translate(500.078 131.05)" fill="#00cc74"/>
    <g id="Group_4334" data-name="Group 4334">
      <path id="Path_8222" data-name="Path 8222" d="M551.648,137.827h-1.68v-1.452h1.7v-3.692h1.707v3.692h3.209v1.452H553.38v6.366c0,3.005,1.909,3.388,2.878,3.388a2.969,2.969,0,0,0,.586-.051v1.553a4.574,4.574,0,0,1-.74.051c-1.476,0-4.456-.484-4.456-4.762Z" fill="#fff"/>
      <path id="Path_8223" data-name="Path 8223" d="M559.7,131.129h1.731v6.927c0,.586-.051,1.044-.051,1.044h.051a5.489,5.489,0,0,1,5.094-3.183c3.158,0,4.278,1.808,4.278,4.966v8.149h-1.732v-7.691c0-2.012-.306-3.794-2.775-3.794a4.862,4.862,0,0,0-4.661,3.642,6.059,6.059,0,0,0-.2,1.706v6.137H559.7Z" fill="#fff"/>
      <path id="Path_8224" data-name="Path 8224" d="M580.22,135.917c3.54,0,5.348,2.725,5.348,5.908,0,.306-.051.891-.051.891h-9.83a4.824,4.824,0,0,0,4.967,5.068,5.957,5.957,0,0,0,3.9-1.553l.789,1.324a7.341,7.341,0,0,1-4.737,1.783,6.475,6.475,0,0,1-6.7-6.7C573.9,138.438,576.756,135.917,580.22,135.917Zm3.59,5.373c-.1-2.674-1.731-3.921-3.641-3.921a4.341,4.341,0,0,0-4.405,3.921Z" fill="#fff"/>
    </g>
    <g id="Group_4335" data-name="Group 4335">
      <path id="Path_8225" data-name="Path 8225" d="M551,159.206h3.352v1.621a8.528,8.528,0,0,1-.056.962h.056a5.3,5.3,0,0,1,4.561-2.912,3.869,3.869,0,0,1,4.095,2.884h.054a5.481,5.481,0,0,1,4.781-2.884c2.914,0,4.589,1.648,4.589,5.33v9.013h-3.49v-8.354c0-1.593-.3-2.8-1.923-2.8-1.786,0-2.967,1.429-3.379,3.187a7.468,7.468,0,0,0-.166,1.814v6.155h-3.49v-8.354c0-1.511-.247-2.8-1.895-2.8-1.813,0-3,1.429-3.435,3.215a7.332,7.332,0,0,0-.165,1.786v6.155H551Z" fill="#fff"/>
      <path id="Path_8226" data-name="Path 8226" d="M583.205,164.427h.467v-.193c0-1.84-1.154-2.473-2.692-2.473a7.493,7.493,0,0,0-3.847,1.347l-1.319-2.5a9.453,9.453,0,0,1,5.495-1.73c3.683,0,5.825,2.033,5.825,5.578v8.765h-3.215v-1.154a8.715,8.715,0,0,1,.056-.989h-.056a4.533,4.533,0,0,1-4.259,2.472c-2.5,0-4.753-1.566-4.753-4.368C574.907,164.729,580.924,164.427,583.205,164.427Zm-2.665,6.4c1.84,0,3.159-1.978,3.159-3.681v-.331h-.6c-1.786,0-4.671.248-4.671,2.2A1.869,1.869,0,0,0,580.54,170.829Z" fill="#fff"/>
      <path id="Path_8227" data-name="Path 8227" d="M591.283,162.2H589.47v-2.775h1.9v-4.039h3.407v4.039h3.188V162.2h-3.188v5.441a2.489,2.489,0,0,0,2.775,2.638,3.2,3.2,0,0,0,.632-.055v3.05a6.05,6.05,0,0,1-1.071.082c-1.951,0-5.826-.576-5.826-5.275Z" fill="#fff"/>
      <path id="Path_8228" data-name="Path 8228" d="M602.192,162.2h-1.813v-2.775h1.9v-4.039h3.407v4.039h3.188V162.2h-3.188v5.441a2.489,2.489,0,0,0,2.776,2.638,3.2,3.2,0,0,0,.632-.055v3.05a6.07,6.07,0,0,1-1.072.082c-1.951,0-5.826-.576-5.826-5.275Z" fill="#fff"/>
      <path id="Path_8229" data-name="Path 8229" d="M618.075,158.877c4.039,0,6.21,2.94,6.21,6.649,0,.412-.083,1.346-.083,1.346h-9.671a3.986,3.986,0,0,0,4.2,3.71,6.922,6.922,0,0,0,4.039-1.539l1.347,2.5a8.757,8.757,0,0,1-5.633,2,7.18,7.18,0,0,1-7.529-7.336C610.958,161.9,613.9,158.877,618.075,158.877Zm2.693,5.6a2.706,2.706,0,0,0-2.776-2.913,3.263,3.263,0,0,0-3.351,2.913Z" fill="#fff"/>
      <path id="Path_8230" data-name="Path 8230" d="M627.17,159.206h3.352v2.418a9.535,9.535,0,0,1-.055.989h.055a4.822,4.822,0,0,1,4.451-3.6,3.988,3.988,0,0,1,.632.055V162.5a5.99,5.99,0,0,0-.824-.055,3.969,3.969,0,0,0-3.82,2.94,7.538,7.538,0,0,0-.3,2.281v5.55H627.17Z" fill="#fff"/>
      <path id="Path_8231" data-name="Path 8231" d="M644.454,153.711h3.461v14.618c0,1.538.522,1.924,1.429,1.924a5.2,5.2,0,0,0,.522-.028v3.05a8,8,0,0,1-1.1.082c-1.923,0-4.313-.494-4.313-4.506Z" fill="#fff"/>
      <path id="Path_8232" data-name="Path 8232" d="M659.565,164.427h.468v-.193c0-1.84-1.154-2.473-2.693-2.473a7.5,7.5,0,0,0-3.847,1.347l-1.319-2.5a9.458,9.458,0,0,1,5.5-1.73c3.682,0,5.825,2.033,5.825,5.578v8.765H660.28v-1.154a8.867,8.867,0,0,1,.055-.989h-.055a4.533,4.533,0,0,1-4.259,2.472c-2.5,0-4.754-1.566-4.754-4.368C651.267,164.729,657.285,164.427,659.565,164.427Zm-2.664,6.4c1.84,0,3.159-1.978,3.159-3.681v-.331h-.6c-1.785,0-4.671.248-4.671,2.2A1.87,1.87,0,0,0,656.9,170.829Z" fill="#fff"/>
      <path id="Path_8233" data-name="Path 8233" d="M667.123,153.711h3.489v6.017c0,.687-.055,1.182-.055,1.182h.055a4.935,4.935,0,0,1,4.2-2.033c3.792,0,6.21,2.995,6.21,7.336,0,4.452-2.72,7.336-6.43,7.336a4.947,4.947,0,0,1-4.177-2.088h-.054a8.211,8.211,0,0,1,.054.962v.8h-3.3Zm6.869,16.9c1.924,0,3.517-1.567,3.517-4.342,0-2.665-1.429-4.4-3.49-4.4-1.813,0-3.517,1.318-3.517,4.423C670.5,168.466,671.656,170.61,673.992,170.61Z" fill="#fff"/>
    </g>
  </g>
</svg>
